<mxfile host="app.diagrams.net" agent="Mozilla/5.0 (Windows NT 10.0; Win64; x64) AppleWebKit/537.36 (KHTML, like Gecko) Chrome/133.0.0.0 Safari/537.36" version="26.0.16">
  <diagram name="Page-1" id="Xp--1NKVFtEGWi8t9xE5">
    <mxGraphModel dx="2284" dy="772" grid="1" gridSize="10" guides="1" tooltips="1" connect="1" arrows="1" fold="1" page="1" pageScale="1" pageWidth="850" pageHeight="1100" math="0" shadow="0">
      <root>
        <mxCell id="0" />
        <mxCell id="1" parent="0" />
        <mxCell id="KyakPXm99uiNBp-NimOs-1" value="" style="strokeWidth=1;shadow=0;dashed=0;align=center;html=1;shape=mxgraph.mockup.containers.browserWindow;rSize=0;strokeColor=#666666;strokeColor2=#008cff;strokeColor3=#c4c4c4;mainText=,;recursiveResize=0;fontColor=#33FF33;" vertex="1" parent="1">
          <mxGeometry x="-100" y="70" width="790" height="760" as="geometry" />
        </mxCell>
        <mxCell id="KyakPXm99uiNBp-NimOs-2" value="Page 1" style="strokeWidth=1;shadow=0;dashed=0;align=center;html=1;shape=mxgraph.mockup.containers.anchor;fontSize=17;fontColor=#666666;align=left;whiteSpace=wrap;" vertex="1" parent="KyakPXm99uiNBp-NimOs-1">
          <mxGeometry x="60" y="12" width="110" height="26" as="geometry" />
        </mxCell>
        <mxCell id="KyakPXm99uiNBp-NimOs-3" value="https://www.draw.io" style="strokeWidth=1;shadow=0;dashed=0;align=center;html=1;shape=mxgraph.mockup.containers.anchor;rSize=0;fontSize=17;fontColor=#666666;align=left;" vertex="1" parent="KyakPXm99uiNBp-NimOs-1">
          <mxGeometry x="130" y="60" width="250" height="26" as="geometry" />
        </mxCell>
        <mxCell id="KyakPXm99uiNBp-NimOs-4" value="" style="verticalLabelPosition=bottom;shadow=0;dashed=0;align=center;html=1;verticalAlign=top;strokeWidth=1;shape=mxgraph.mockup.containers.userMale;strokeColor=#666666;strokeColor2=#008cff;" vertex="1" parent="KyakPXm99uiNBp-NimOs-1">
          <mxGeometry x="40" y="190" width="100" height="100" as="geometry" />
        </mxCell>
        <mxCell id="KyakPXm99uiNBp-NimOs-5" value="&lt;font style=&quot;font-size: 22px; color: rgb(51, 255, 255);&quot;&gt;NHẬP THÔNG TIN NHÂN SỰ&lt;/font&gt;" style="text;html=1;align=center;verticalAlign=middle;whiteSpace=wrap;rounded=0;" vertex="1" parent="KyakPXm99uiNBp-NimOs-1">
          <mxGeometry x="150" y="170" width="370" height="30" as="geometry" />
        </mxCell>
        <mxCell id="KyakPXm99uiNBp-NimOs-6" value="Mã nhân viên:" style="text;html=1;align=center;verticalAlign=middle;whiteSpace=wrap;rounded=0;" vertex="1" parent="KyakPXm99uiNBp-NimOs-1">
          <mxGeometry x="200" y="220" width="130" height="30" as="geometry" />
        </mxCell>
        <mxCell id="KyakPXm99uiNBp-NimOs-7" value="Tên nhân viên:" style="text;html=1;align=center;verticalAlign=middle;whiteSpace=wrap;rounded=0;" vertex="1" parent="KyakPXm99uiNBp-NimOs-1">
          <mxGeometry x="185" y="250" width="160" height="30" as="geometry" />
        </mxCell>
        <mxCell id="KyakPXm99uiNBp-NimOs-8" value="Địa chỉ:" style="text;html=1;align=center;verticalAlign=middle;whiteSpace=wrap;rounded=0;" vertex="1" parent="KyakPXm99uiNBp-NimOs-1">
          <mxGeometry x="250" y="280" width="60" height="30" as="geometry" />
        </mxCell>
        <mxCell id="KyakPXm99uiNBp-NimOs-9" value="" style="shape=mxgraph.mockup.containers.marginRect;rectMarginTop=10;strokeColor=#666666;strokeWidth=1;dashed=0;rounded=1;arcSize=5;recursiveResize=0;html=1;whiteSpace=wrap;" vertex="1" parent="KyakPXm99uiNBp-NimOs-1">
          <mxGeometry x="80" y="400" width="150" height="120" as="geometry" />
        </mxCell>
        <mxCell id="KyakPXm99uiNBp-NimOs-10" value="Học vấn" style="shape=rect;strokeColor=none;fillColor=#008cff;strokeWidth=1;dashed=0;rounded=1;arcSize=20;fontColor=#ffffff;fontSize=17;spacing=2;spacingTop=-2;align=left;autosize=1;spacingLeft=4;resizeWidth=0;resizeHeight=0;perimeter=none;html=1;whiteSpace=wrap;" vertex="1" parent="KyakPXm99uiNBp-NimOs-9">
          <mxGeometry x="5" width="90" height="30" as="geometry" />
        </mxCell>
        <mxCell id="KyakPXm99uiNBp-NimOs-11" value="Đại học" style="strokeWidth=1;shadow=0;dashed=0;align=center;html=1;shape=mxgraph.mockup.forms.rrect;rSize=0;fillColor=#eeeeee;strokeColor=#999999;gradientColor=#cccccc;align=left;spacingLeft=4;fontSize=17;fontColor=#666666;labelPosition=right;" vertex="1" parent="KyakPXm99uiNBp-NimOs-9">
          <mxGeometry x="20" y="65" width="15" height="15" as="geometry" />
        </mxCell>
        <mxCell id="KyakPXm99uiNBp-NimOs-13" value="Trên đại học" style="strokeWidth=1;shadow=0;dashed=0;align=center;html=1;shape=mxgraph.mockup.forms.rrect;rSize=0;fillColor=#eeeeee;strokeColor=#999999;gradientColor=#cccccc;align=left;spacingLeft=4;fontSize=17;fontColor=#666666;labelPosition=right;" vertex="1" parent="KyakPXm99uiNBp-NimOs-9">
          <mxGeometry x="20" y="90" width="15" height="15" as="geometry" />
        </mxCell>
        <mxCell id="KyakPXm99uiNBp-NimOs-15" value="" style="shape=mxgraph.mockup.containers.marginRect;rectMarginTop=10;strokeColor=#666666;strokeWidth=1;dashed=0;rounded=1;arcSize=5;recursiveResize=0;html=1;whiteSpace=wrap;" vertex="1" parent="KyakPXm99uiNBp-NimOs-1">
          <mxGeometry x="280" y="400" width="150" height="120" as="geometry" />
        </mxCell>
        <mxCell id="KyakPXm99uiNBp-NimOs-16" value="Ngoại ngữ" style="shape=rect;strokeColor=none;fillColor=#008cff;strokeWidth=1;dashed=0;rounded=1;arcSize=20;fontColor=#ffffff;fontSize=17;spacing=2;spacingTop=-2;align=left;autosize=1;spacingLeft=4;resizeWidth=0;resizeHeight=0;perimeter=none;html=1;whiteSpace=wrap;" vertex="1" parent="KyakPXm99uiNBp-NimOs-15">
          <mxGeometry x="5" width="110" height="30" as="geometry" />
        </mxCell>
        <mxCell id="KyakPXm99uiNBp-NimOs-17" value="IELTS" style="strokeWidth=1;shadow=0;dashed=0;align=center;html=1;shape=mxgraph.mockup.forms.rrect;rSize=0;fillColor=#eeeeee;strokeColor=#999999;gradientColor=#cccccc;align=left;spacingLeft=4;fontSize=17;fontColor=#666666;labelPosition=right;" vertex="1" parent="KyakPXm99uiNBp-NimOs-15">
          <mxGeometry x="20" y="65" width="15" height="15" as="geometry" />
        </mxCell>
        <mxCell id="KyakPXm99uiNBp-NimOs-18" value="TOEIC" style="strokeWidth=1;shadow=0;dashed=0;align=center;html=1;shape=mxgraph.mockup.forms.rrect;rSize=0;fillColor=#eeeeee;strokeColor=#999999;gradientColor=#cccccc;align=left;spacingLeft=4;fontSize=17;fontColor=#666666;labelPosition=right;" vertex="1" parent="KyakPXm99uiNBp-NimOs-15">
          <mxGeometry x="20" y="90" width="15" height="15" as="geometry" />
        </mxCell>
        <mxCell id="KyakPXm99uiNBp-NimOs-19" value="" style="shape=mxgraph.mockup.containers.marginRect;rectMarginTop=10;strokeColor=#666666;strokeWidth=1;dashed=0;rounded=1;arcSize=5;recursiveResize=0;html=1;whiteSpace=wrap;" vertex="1" parent="KyakPXm99uiNBp-NimOs-1">
          <mxGeometry x="490" y="400" width="150" height="120" as="geometry" />
        </mxCell>
        <mxCell id="KyakPXm99uiNBp-NimOs-20" value="Ngoại ngữ" style="shape=rect;strokeColor=none;fillColor=#008cff;strokeWidth=1;dashed=0;rounded=1;arcSize=20;fontColor=#ffffff;fontSize=17;spacing=2;spacingTop=-2;align=left;autosize=1;spacingLeft=4;resizeWidth=0;resizeHeight=0;perimeter=none;html=1;whiteSpace=wrap;" vertex="1" parent="KyakPXm99uiNBp-NimOs-19">
          <mxGeometry x="5" width="110" height="30" as="geometry" />
        </mxCell>
        <mxCell id="KyakPXm99uiNBp-NimOs-23" value="Kết hôn" style="shape=ellipse;fillColor=#eeeeee;strokeColor=#999999;gradientColor=#cccccc;html=1;align=left;spacingLeft=4;fontSize=17;fontColor=#666666;labelPosition=right;shadow=0;" vertex="1" parent="KyakPXm99uiNBp-NimOs-19">
          <mxGeometry x="15" y="65" width="15" height="15" as="geometry" />
        </mxCell>
        <mxCell id="KyakPXm99uiNBp-NimOs-28" value="Độc thân" style="shape=ellipse;fillColor=#eeeeee;strokeColor=#999999;gradientColor=#cccccc;html=1;align=left;spacingLeft=4;fontSize=17;fontColor=#666666;labelPosition=right;shadow=0;" vertex="1" parent="KyakPXm99uiNBp-NimOs-19">
          <mxGeometry x="15" y="90" width="15" height="15" as="geometry" />
        </mxCell>
      </root>
    </mxGraphModel>
  </diagram>
</mxfile>
